<svg width="20" height="20" viewBox="0 0 20 20" fill="none" xmlns="http://www.w3.org/2000/svg">
    <g clip-path="url(#7xv6d3ywxa)" fill="#7C5AFF">
        <path d="M10 0a10 10 0 1 0 10 10A10.011 10.011 0 0 0 10 0zm0 18.333A8.333 8.333 0 1 1 18.333 10 8.342 8.342 0 0 1 10 18.333z"/>
        <path d="M10 8.333h-.834a.833.833 0 0 0 0 1.667H10v5a.833.833 0 1 0 1.666 0v-5A1.667 1.667 0 0 0 10 8.333zM10 6.667a1.25 1.25 0 1 0 0-2.5 1.25 1.25 0 0 0 0 2.5z"/>
    </g>
    <defs>
        <clipPath id="7xv6d3ywxa">
            <path fill="#fff" d="M0 0h20v20H0z"/>
        </clipPath>
    </defs>
</svg>
